<svg width="22" height="22" viewBox="0 0 22 22" fill="none" xmlns="http://www.w3.org/2000/svg">
<path d="M8.75 2.75V0.75M12.75 2.75V0.75M12.75 18.75V20.75M8.75 18.75V20.75M18.75 8.75H20.75M18.75 12.75H20.75M2.75 8.75H0.75M2.75 12.75H0.75M6.75 18.75H14.75C16.9591 18.75 18.75 16.9591 18.75 14.75V6.75C18.75 4.54086 16.9591 2.75 14.75 2.75H6.75C4.54086 2.75 2.75 4.54086 2.75 6.75V14.75C2.75 16.9591 4.54086 18.75 6.75 18.75ZM9.75 13.75H11.75C12.8546 13.75 13.75 12.8546 13.75 11.75V9.75C13.75 8.64543 12.8546 7.75 11.75 7.75H9.75C8.64543 7.75 7.75 8.64543 7.75 9.75V11.75C7.75 12.8546 8.64543 13.75 9.75 13.75Z" stroke="#0A0614" stroke-width="1.5" stroke-linecap="round" stroke-linejoin="round"/>
</svg>
