<svg width="18" height="24" viewBox="0 0 18 24" fill="none" xmlns="http://www.w3.org/2000/svg">
<path d="M2.25 24C1.63125 24 1.10156 23.7762 0.660938 23.3286C0.220313 22.881 0 22.3429 0 21.7143V10.2857C0 9.65714 0.220313 9.11905 0.660938 8.67143C1.10156 8.22381 1.63125 8 2.25 8H3.375V5.71429C3.375 4.13333 3.92344 2.78571 5.02031 1.67143C6.11719 0.557143 7.44375 0 9 0C10.5562 0 11.8828 0.557143 12.9797 1.67143C14.0766 2.78571 14.625 4.13333 14.625 5.71429V8H15.75C16.3687 8 16.8984 8.22381 17.3391 8.67143C17.7797 9.11905 18 9.65714 18 10.2857V21.7143C18 22.3429 17.7797 22.881 17.3391 23.3286C16.8984 23.7762 16.3687 24 15.75 24H2.25ZM2.25 21.7143H15.75V10.2857H2.25V21.7143ZM9 18.2857C9.61875 18.2857 10.1484 18.0619 10.5891 17.6143C11.0297 17.1667 11.25 16.6286 11.25 16C11.25 15.3714 11.0297 14.8333 10.5891 14.3857C10.1484 13.9381 9.61875 13.7143 9 13.7143C8.38125 13.7143 7.85156 13.9381 7.41094 14.3857C6.97031 14.8333 6.75 15.3714 6.75 16C6.75 16.6286 6.97031 17.1667 7.41094 17.6143C7.85156 18.0619 8.38125 18.2857 9 18.2857ZM5.625 8H12.375V5.71429C12.375 4.76191 12.0469 3.95238 11.3906 3.28571C10.7344 2.61905 9.9375 2.28571 9 2.28571C8.0625 2.28571 7.26562 2.61905 6.60938 3.28571C5.95312 3.95238 5.625 4.76191 5.625 5.71429V8Z" fill="#1C1B1F"/>
</svg>
