<svg width="22" height="21" viewBox="0 0 22 21" fill="none" xmlns="http://www.w3.org/2000/svg">
<path d="M12.3613 13.3332L14.5083 17.0519C14.9225 17.7693 14.6767 18.6867 13.9592 19.1009C13.2418 19.5151 12.3244 19.2693 11.9102 18.5519L9.25663 13.9558M17.6555 2.23514L18.0215 0.869113M19.6555 5.69925L21.0215 6.06528M6.29926 14.5653L16.918 12.1338C18.2296 11.8335 18.8764 10.3496 18.2036 9.18426L13.9115 1.75016C13.2387 0.584826 11.6303 0.403026 10.7143 1.38879L3.29926 9.36913L6.29926 14.5653ZM3.54929 9.80212L6.04929 14.1322C6.4635 14.8497 6.21769 15.7671 5.50025 16.1813C4.78281 16.5955 3.86543 16.3497 3.45121 15.6322L0.951212 11.3021C0.536999 10.5847 0.782812 9.6673 1.50025 9.25308C2.21769 8.83887 3.13507 9.08468 3.54929 9.80212Z" stroke="#0A0614" stroke-width="1.5" stroke-linecap="round" stroke-linejoin="round"/>
</svg>
