<svg width="20" height="21" viewBox="0 0 20 21" fill="none" xmlns="http://www.w3.org/2000/svg">
<path d="M18.75 14.9773C18.75 16.6341 17.4069 17.9773 15.75 17.9773C14.0931 17.9773 12.75 16.6341 12.75 14.9773C12.75 13.3204 14.0931 11.9773 15.75 11.9773C17.4069 11.9773 18.75 13.3204 18.75 14.9773ZM18.75 14.9773V8.75214C18.75 7.38703 17.4126 6.42309 16.1175 6.85478L9.48509 9.0656C7.85172 9.61005 6.75 11.1386 6.75 12.8603V16.9773M6.75 16.9773C6.75 18.6341 5.40685 19.9773 3.75 19.9773C2.09315 19.9773 0.75 18.6341 0.75 16.9773C0.75 15.3204 2.09315 13.9773 3.75 13.9773C5.40685 13.9773 6.75 15.3204 6.75 16.9773ZM18.75 9.97729V2.75214C18.75 1.38703 17.4126 0.42309 16.1175 0.854777L9.48509 3.0656C7.85172 3.61005 6.75 5.13861 6.75 6.86033V11.9773" stroke="#0A0614" stroke-width="1.5" stroke-linecap="round" stroke-linejoin="round"/>
</svg>
