<svg width="16" height="16" viewBox="0 0 16 16" fill="none" xmlns="http://www.w3.org/2000/svg">
<path d="M14.7811 1.22034C14.6788 1.11812 14.5492 1.04763 14.4078 1.01736C14.2665 0.987084 14.1193 0.998322 13.9842 1.04972L1.48327 5.78128H1.48077C1.33663 5.83672 1.21312 5.9353 1.1271 6.06356C1.04109 6.19182 0.996765 6.3435 1.00018 6.49789C1.0036 6.65229 1.0546 6.80186 1.14621 6.92619C1.23781 7.05051 1.36557 7.14353 1.51202 7.19253L1.52483 7.19659L5.81545 9.02878C5.89914 9.05419 5.98803 9.0572 6.07324 9.03751C6.15845 9.01782 6.23701 8.97613 6.30108 8.91659L13.1873 2.50003C13.2078 2.47951 13.2322 2.46323 13.259 2.45213C13.2858 2.44102 13.3146 2.43531 13.3436 2.43531C13.3726 2.43531 13.4013 2.44102 13.4281 2.45213C13.455 2.46323 13.4793 2.47951 13.4998 2.50003C13.5203 2.52055 13.5366 2.54491 13.5477 2.57172C13.5588 2.59853 13.5645 2.62726 13.5645 2.65628C13.5645 2.6853 13.5588 2.71403 13.5477 2.74084C13.5366 2.76765 13.5203 2.79201 13.4998 2.81253L7.08295 9.69566C7.02342 9.75972 6.98172 9.83828 6.96204 9.92349C6.94235 10.0087 6.94536 10.0976 6.97077 10.1813L8.80358 14.4744C8.80545 14.4807 8.80733 14.4863 8.80952 14.4922C8.90952 14.7819 9.16264 14.9863 9.46858 15H9.49983C9.65427 15.0009 9.80542 14.9553 9.9336 14.8691C10.0618 14.783 10.1611 14.6603 10.2186 14.5169L14.9495 2.01941C15.0016 1.88418 15.0135 1.73675 14.9836 1.59494C14.9537 1.45313 14.8834 1.32302 14.7811 1.22034Z" fill="white"/>
</svg>
