<svg width="23" height="23" viewBox="0 0 23 23" fill="none" xmlns="http://www.w3.org/2000/svg">
<path d="M8.13532 22.4L7.68955 18.816C7.44809 18.7227 7.22056 18.6107 7.00696 18.48C6.79337 18.3493 6.58441 18.2093 6.3801 18.06L3.06468 19.46L0 14.14L2.86965 11.956C2.85108 11.8253 2.84179 11.6993 2.84179 11.578V10.822C2.84179 10.7007 2.85108 10.5747 2.86965 10.444L0 8.26L3.06468 2.94L6.3801 4.34C6.58441 4.19067 6.79801 4.05067 7.0209 3.92C7.24378 3.78933 7.46667 3.67733 7.68955 3.584L8.13532 0H14.2647L14.7104 3.584C14.9519 3.67733 15.1794 3.78933 15.393 3.92C15.6066 4.05067 15.8156 4.19067 16.0199 4.34L19.3353 2.94L22.4 8.26L19.5303 10.444C19.5489 10.5747 19.5582 10.7007 19.5582 10.822V11.578C19.5582 11.6993 19.5396 11.8253 19.5025 11.956L22.3721 14.14L19.3075 19.46L16.0199 18.06C15.8156 18.2093 15.602 18.3493 15.3791 18.48C15.1562 18.6107 14.9333 18.7227 14.7104 18.816L14.2647 22.4H8.13532ZM10.0856 20.16H12.2866L12.6766 17.192C13.2524 17.0427 13.7864 16.8233 14.2786 16.534C14.7708 16.2447 15.2212 15.8947 15.6299 15.484L18.3881 16.632L19.4746 14.728L17.0786 12.908C17.1715 12.6467 17.2365 12.3713 17.2736 12.082C17.3108 11.7927 17.3294 11.4987 17.3294 11.2C17.3294 10.9013 17.3108 10.6073 17.2736 10.318C17.2365 10.0287 17.1715 9.75333 17.0786 9.492L19.4746 7.672L18.3881 5.768L15.6299 6.944C15.2212 6.51467 14.7708 6.15533 14.2786 5.866C13.7864 5.57667 13.2524 5.35733 12.6766 5.208L12.3144 2.24H10.1134L9.72338 5.208C9.1476 5.35733 8.6136 5.57667 8.12139 5.866C7.62919 6.15533 7.17877 6.50533 6.77015 6.916L4.01194 5.768L2.92537 7.672L5.32139 9.464C5.22852 9.744 5.16352 10.024 5.12637 10.304C5.08922 10.584 5.07065 10.8827 5.07065 11.2C5.07065 11.4987 5.08922 11.788 5.12637 12.068C5.16352 12.348 5.22852 12.628 5.32139 12.908L2.92537 14.728L4.01194 16.632L6.77015 15.456C7.17877 15.8853 7.62919 16.2447 8.12139 16.534C8.6136 16.8233 9.1476 17.0427 9.72338 17.192L10.0856 20.16ZM11.2557 15.12C12.333 15.12 13.2524 14.7373 14.0139 13.972C14.7755 13.2067 15.1562 12.2827 15.1562 11.2C15.1562 10.1173 14.7755 9.19333 14.0139 8.428C13.2524 7.66267 12.333 7.28 11.2557 7.28C10.1599 7.28 9.23582 7.66267 8.48358 8.428C7.73134 9.19333 7.35522 10.1173 7.35522 11.2C7.35522 12.2827 7.73134 13.2067 8.48358 13.972C9.23582 14.7373 10.1599 15.12 11.2557 15.12Z" fill="#1C1B1F"/>
</svg>
