<svg width="22" height="22" viewBox="0 0 22 22" fill="none" xmlns="http://www.w3.org/2000/svg">
<path d="M8.76277 20.5525L8.91101 19.8173L8.91101 19.8173L8.76277 20.5525ZM17.8052 17.8369L17.2761 17.3054L17.2761 17.3054L17.8052 17.8369ZM9.75 6.25H10.5C10.5 5.00736 9.49264 4 8.25 4V4.75V5.5C8.66421 5.5 9 5.83579 9 6.25H9.75ZM8.25 4.75V4C7.00736 4 6 5.00736 6 6.25H6.75H7.5C7.5 5.83579 7.83579 5.5 8.25 5.5V4.75ZM6.75 6.25H6C6 7.49264 7.00736 8.5 8.25 8.5V7.75V7C7.83579 7 7.5 6.66421 7.5 6.25H6.75ZM8.25 7.75V8.5C9.49264 8.5 10.5 7.49264 10.5 6.25H9.75H9C9 6.66421 8.66421 7 8.25 7V7.75ZM17.25 8.75H18C18 7.50736 16.9926 6.5 15.75 6.5V7.25V8C16.1642 8 16.5 8.33579 16.5 8.75H17.25ZM15.75 7.25V6.5C14.5074 6.5 13.5 7.50736 13.5 8.75H14.25H15C15 8.33579 15.3358 8 15.75 8V7.25ZM14.25 8.75H13.5C13.5 9.99264 14.5074 11 15.75 11V10.25V9.5C15.3358 9.5 15 9.16421 15 8.75H14.25ZM15.75 10.25V11C16.9926 11 18 9.99264 18 8.75H17.25H16.5C16.5 9.16421 16.1642 9.5 15.75 9.5V10.25ZM8.25 14.25H9C9 13.0074 7.99264 12 6.75 12V12.75V13.5C7.16421 13.5 7.5 13.8358 7.5 14.25H8.25ZM6.75 12.75V12C5.50736 12 4.5 13.0074 4.5 14.25H5.25H6C6 13.8358 6.33579 13.5 6.75 13.5V12.75ZM5.25 14.25H4.5C4.5 15.4926 5.50736 16.5 6.75 16.5V15.75V15C6.33579 15 6 14.6642 6 14.25H5.25ZM6.75 15.75V16.5C7.99264 16.5 9 15.4926 9 14.25H8.25H7.5C7.5 14.6642 7.16421 15 6.75 15V15.75ZM8.76277 20.5525L8.91101 19.8173C4.6833 18.9649 1.5 15.2284 1.5 10.75H0.75H0C0 15.9565 3.70055 20.297 8.61453 21.2878L8.76277 20.5525ZM0.75 10.75H1.5C1.5 5.64137 5.64137 1.5 10.75 1.5V0.75V0C4.81294 0 0 4.81294 0 10.75H0.75ZM10.75 0.75V1.5C15.8586 1.5 20 5.64137 20 10.75H20.75H21.5C21.5 4.81294 16.6871 0 10.75 0V0.75ZM12.9722 12.9722V13.7222C13.7853 13.7222 14.4444 14.3814 14.4444 15.1944H15.1944H15.9444C15.9444 13.5529 14.6137 12.2222 12.9722 12.2222V12.9722ZM10.75 15.1944H11.5C11.5 14.3814 12.1591 13.7222 12.9722 13.7222V12.9722V12.2222C11.3307 12.2222 10 13.5529 10 15.1944H10.75ZM15.1944 15.1944H14.4444V16.4833H15.1944H15.9444V15.1944H15.1944ZM20.75 10.75H20C20 13.312 18.9594 15.6295 17.2761 17.3054L17.8052 17.8369L18.3344 18.3684C20.2889 16.4225 21.5 13.727 21.5 10.75H20.75ZM10.75 15.1944H10V18.75H10.75H11.5V15.1944H10.75ZM15.1944 16.4833H14.4444C14.4444 17.4915 14.9766 18.3491 15.7466 18.7683C16.5447 19.2028 17.5616 19.1378 18.3344 18.3684L17.8052 17.8369L17.2761 17.3054C16.9967 17.5835 16.7082 17.5839 16.4639 17.4509C16.1916 17.3026 15.9444 16.9597 15.9444 16.4833H15.1944ZM8.76277 20.5525L8.61453 21.2878C10.265 21.6205 11.5 20.2169 11.5 18.75H10.75H10C10 19.4922 9.42614 19.9212 8.91101 19.8173L8.76277 20.5525Z" fill="#0A0614"/>
</svg>
